<mxfile host="" modified="2020-06-04T00:51:18.980Z" agent="5.0 (Macintosh; Intel Mac OS X 10_14_6) AppleWebKit/537.36 (KHTML, like Gecko) Code/1.45.1 Chrome/78.0.3904.130 Electron/7.2.4 Safari/537.36" etag="-J2G0C3Z3xCjwp0pNbg4" version="13.1.3">
    <diagram id="6hGFLwfOUW9BJ-s0fimq" name="Page-1">
        <mxGraphModel dx="1533" dy="628" grid="0" gridSize="10" guides="1" tooltips="1" connect="1" arrows="1" fold="1" page="1" pageScale="1" pageWidth="827" pageHeight="1169" background="#ffffff" math="0" shadow="0">
            <root>
                <mxCell id="0"/>
                <mxCell id="1" parent="0"/>
                <mxCell id="2" value="Система поддержки принятия решений" style="shape=umlFrame;whiteSpace=wrap;html=1;width=240;height=30;swimlaneFillColor=none;strokeWidth=2;fillColor=#f5f5f5;strokeColor=#666666;fontColor=#333333;" vertex="1" parent="1">
                    <mxGeometry x="-820" y="10" width="460" height="370" as="geometry"/>
                </mxCell>
                <mxCell id="7" value="«web-service»&lt;br&gt;&lt;b&gt;Yandex.Forms&lt;/b&gt;" style="html=1;dropTarget=0;fillColor=#f5f5f5;strokeColor=#666666;fontColor=#333333;" vertex="1" parent="1">
                    <mxGeometry x="-760" y="100" width="120" height="80" as="geometry"/>
                </mxCell>
                <mxCell id="8" value="" style="shape=component;jettyWidth=8;jettyHeight=4;" vertex="1" parent="7">
                    <mxGeometry x="1" width="20" height="20" relative="1" as="geometry">
                        <mxPoint x="-27" y="7" as="offset"/>
                    </mxGeometry>
                </mxCell>
                <mxCell id="9" value="«web-service»&lt;br&gt;&lt;b&gt;Yandex.Startrek&lt;/b&gt;" style="html=1;dropTarget=0;fillColor=#f5f5f5;strokeColor=#666666;fontColor=#333333;" vertex="1" parent="1">
                    <mxGeometry x="-760" y="240" width="120" height="80" as="geometry"/>
                </mxCell>
                <mxCell id="10" value="" style="shape=component;jettyWidth=8;jettyHeight=4;" vertex="1" parent="9">
                    <mxGeometry x="1" width="20" height="20" relative="1" as="geometry">
                        <mxPoint x="-27" y="7" as="offset"/>
                    </mxGeometry>
                </mxCell>
                <mxCell id="12" value="«web-service»&lt;br&gt;&lt;b&gt;Core&lt;/b&gt;" style="html=1;dropTarget=0;fillColor=#f5f5f5;strokeColor=#666666;fontColor=#333333;" vertex="1" parent="1">
                    <mxGeometry x="-520" y="240" width="120" height="80" as="geometry"/>
                </mxCell>
                <mxCell id="13" value="" style="shape=component;jettyWidth=8;jettyHeight=4;" vertex="1" parent="12">
                    <mxGeometry x="1" width="20" height="20" relative="1" as="geometry">
                        <mxPoint x="-27" y="7" as="offset"/>
                    </mxGeometry>
                </mxCell>
                <mxCell id="14" value="UI/UX" style="shape=umlFrame;whiteSpace=wrap;html=1;width=60;height=15;dashed=1;labelPosition=center;verticalLabelPosition=middle;align=center;verticalAlign=middle;fillColor=#f5f5f5;strokeColor=#666666;fontColor=#333333;" vertex="1" parent="1">
                    <mxGeometry x="-800" y="60" width="200" height="280" as="geometry"/>
                </mxCell>
                <mxCell id="15" value="«СУБД»&lt;br&gt;&lt;b&gt;MongoDB&lt;/b&gt;" style="html=1;dropTarget=0;fillColor=#f5f5f5;strokeColor=#666666;fontColor=#333333;" vertex="1" parent="1">
                    <mxGeometry x="-520" y="100" width="120" height="80" as="geometry"/>
                </mxCell>
                <mxCell id="16" value="" style="shape=component;jettyWidth=8;jettyHeight=4;" vertex="1" parent="15">
                    <mxGeometry x="1" width="20" height="20" relative="1" as="geometry">
                        <mxPoint x="-27" y="7" as="offset"/>
                    </mxGeometry>
                </mxCell>
                <mxCell id="17" value="create" style="html=1;verticalAlign=bottom;endArrow=block;exitX=0.5;exitY=1;exitDx=0;exitDy=0;entryX=0.5;entryY=0;entryDx=0;entryDy=0;fillColor=#f5f5f5;strokeColor=#666666;labelBackgroundColor=none;fontColor=#000000;" edge="1" parent="1" source="7" target="9">
                    <mxGeometry x="0.3333" width="80" relative="1" as="geometry">
                        <mxPoint x="-490" y="320" as="sourcePoint"/>
                        <mxPoint x="-410" y="320" as="targetPoint"/>
                        <mxPoint as="offset"/>
                    </mxGeometry>
                </mxCell>
                <mxCell id="18" value="startrek-controller" style="html=1;verticalAlign=bottom;endArrow=block;exitX=1;exitY=0.5;exitDx=0;exitDy=0;entryX=0;entryY=0.5;entryDx=0;entryDy=0;startArrow=block;startFill=1;fillColor=#f5f5f5;strokeColor=#666666;fontColor=#000000;labelBackgroundColor=none;" edge="1" parent="1" source="9" target="12">
                    <mxGeometry width="80" relative="1" as="geometry">
                        <mxPoint x="-490" y="320" as="sourcePoint"/>
                        <mxPoint x="-410" y="320" as="targetPoint"/>
                    </mxGeometry>
                </mxCell>
                <mxCell id="19" value="СУМ" style="shape=umlFrame;whiteSpace=wrap;html=1;dashed=1;width=60;height=15;fillColor=#f5f5f5;strokeColor=#666666;fontColor=#333333;" vertex="1" parent="1">
                    <mxGeometry x="-780" y="80" width="400" height="120" as="geometry"/>
                </mxCell>
                <mxCell id="21" value="mongodb-controller" style="html=1;verticalAlign=bottom;endArrow=block;exitX=0.5;exitY=0;exitDx=0;exitDy=0;entryX=0.5;entryY=1;entryDx=0;entryDy=0;startArrow=block;startFill=1;fillColor=#f5f5f5;strokeColor=#666666;labelBackgroundColor=none;fontColor=#000000;" edge="1" parent="1" source="12" target="15">
                    <mxGeometry x="-0.3333" width="80" relative="1" as="geometry">
                        <mxPoint x="-560" y="430" as="sourcePoint"/>
                        <mxPoint x="-480" y="430" as="targetPoint"/>
                        <mxPoint as="offset"/>
                    </mxGeometry>
                </mxCell>
                <mxCell id="22" value="feedback-controller" style="html=1;verticalAlign=bottom;endArrow=block;exitX=0.5;exitY=1;exitDx=0;exitDy=0;entryX=0.5;entryY=1;entryDx=0;entryDy=0;fillColor=#f5f5f5;strokeColor=#666666;labelBackgroundColor=none;fontColor=#000000;" edge="1" parent="1" source="9" target="12">
                    <mxGeometry width="80" relative="1" as="geometry">
                        <mxPoint x="-690" y="470" as="sourcePoint"/>
                        <mxPoint x="-610" y="470" as="targetPoint"/>
                        <Array as="points">
                            <mxPoint x="-700" y="360"/>
                            <mxPoint x="-460" y="360"/>
                        </Array>
                    </mxGeometry>
                </mxCell>
                <mxCell id="24" value="model-controller" style="html=1;verticalAlign=bottom;endArrow=block;labelBackgroundColor=none;fontColor=#000000;fillColor=#f5f5f5;strokeColor=#666666;entryX=0;entryY=0.75;entryDx=0;entryDy=0;exitX=0;exitY=0.25;exitDx=0;exitDy=0;" edge="1" parent="1" source="12" target="15">
                    <mxGeometry x="-0.25" y="-10" width="80" relative="1" as="geometry">
                        <mxPoint x="-630" y="194.60000000000002" as="sourcePoint"/>
                        <mxPoint x="-550" y="194.60000000000002" as="targetPoint"/>
                        <Array as="points">
                            <mxPoint x="-560" y="260"/>
                            <mxPoint x="-560" y="160"/>
                        </Array>
                        <mxPoint x="-10" y="-10" as="offset"/>
                    </mxGeometry>
                </mxCell>
            </root>
        </mxGraphModel>
    </diagram>
</mxfile>
